<svg xmlns="http://www.w3.org/2000/svg" xmlns:xlink="http://www.w3.org/1999/xlink" viewBox="0 0 1024 1024"><defs><style>.cls-1{fill:url(#未命名的渐变_9);}.cls-2{fill:#fff;}</style><linearGradient id="未命名的渐变_9" x1="499.32" y1="249.65" x2="539.37" y2="1114.74" gradientUnits="userSpaceOnUse"><stop offset="0" stop-color="#37529c"/><stop offset="1" stop-color="#00a6de"/></linearGradient></defs><title>蓝鲸系列logo</title><g id="图层_5" data-name="图层 5"><path class="cls-1" d="M827.35,195.46,512.11,64.28,196.45,194.43,65.27,509.67,195.42,825.33,510.66,956.5,826.32,826.35,957.5,511.12Z"/><path class="cls-2" d="M513.14,262A35.82,35.82,0,0,0,496,266.36l-194.13,94.3a13.5,13.5,0,0,0-1.21.64,35.76,35.76,0,0,0,0,61.95c.43.25.88.49,1.43.75L485.8,509.94l-.32,207-156.66-83.7L327.88,548a37.65,37.65,0,1,0-38.07.45l.95,87a36,36,0,0,0,18.41,30.92l161.1,86a35.47,35.47,0,0,0,35.74,0,35.41,35.41,0,0,0,17.88-31V510.63l190-77.5-.34,200.65-89.7,45.3a37.61,37.61,0,1,0,17.86,33.63l91.85-46.49A35.79,35.79,0,0,0,752,634.94V429.53a35.42,35.42,0,0,0-17.89-31,35.45,35.45,0,0,0-34.43-.74L505.37,477.06,324,392.22l188.94-91.77.22-.06h0l.18.08,96.36,42.95a37.78,37.78,0,1,0,18.51-33.36l-98-43.74A35.79,35.79,0,0,0,513.14,262Z"/></g></svg>